{"title":"Saw 3D (Stereoscopic Side-by-Side MKV)","uid":6671863,"size":9635964911,"categoryP":"video","categoryS":"3d","magnet":"?xt=urn:btih:b711e7727c216f0c0d8c2940e62ffe1c6ab9d3de&amp;dn=Saw+3D+%28Stereoscopic+Side-by-Side+MKV%29&amp;tr=udp%3A%2F%2Ftracker.openbittorrent.com%3A80&amp;tr=udp%3A%2F%2Fopen.demonii.com%3A1337&amp;tr=udp%3A%2F%2Ftracker.coppersurfer.tk%3A6969&amp;tr=udp%3A%2F%2Fexodus.desync.com%3A6969","seeders":0,"leechers":0,"uploader":"L3G3ND","files":2,"time":1315902813,"description":"This is a stereoscopic 3D rip of Saw 3D, for new 3D TVs or computers with Nvidia 3D Vision. Tested with Stereoscopic Player. Enjoy!\n\nTitle: Saw 3D: The Final Chapter (2010)\nRated: R\nRuntime: 90 minutes\nGenre: Crime | Horror | Mystery\n\nDescription:\nAs a deadly battle rages over Jigsaw's brutal legacy, a group of Jigsaw survivors gathers to seek the support of self-help guru and fellow survivor Bobby Dagen, a man whose own dark secrets unleash a new wave of terror.\n-From IMDB Page: http://www.imdb.com/title/tt1477076/\n\nGeneral\nUnique ID : 179335730705953156291064330373253063531 (0x86EACE2DCF8B2562BC98EF84E730636B)\nComplete name : [filepath]\\SAW - The Final Chapter 3D.mkv\nFormat : Matroska\nFile size : 8.97 GiB\nDuration : 1h 30mn\nOverall bit rate : 14.2 Mbps\nEncoded date : UTC 2011-01-22 01:18:16\nWriting application : mkvmerge v4.0.0 ('The Stars were mine') built on Jun 6 2010 16:18:42\nWriting library : libebml v1.0.0 + libmatroska v1.0.0\n\nVideo\nID : 1\nFormat : AVC\nFormat/Info : Advanced Video Codec\nFormat profile : &lt;a class=&quot;__cf_email__&quot; href=&quot;/cdn-cgi/l/email-protection&quot; data-cfemail=&quot;fbb3929c93bbb7cfd5ca&quot;&gt;[email&amp;#160;protected]&lt;/a&gt;&lt;script data-cfhash='f9e31' type=&quot;text/javascript&quot;&gt;\n/* &lt;![CDATA[ */!function(){try{var t=&quot;currentScript&quot;in document?document.currentScript:function(){for(var t=document.getElementsByTagName(&quot;script&quot;),e=t.length;e--;)if(t[e].getAttribute(&quot;data-cfhash&quot;))return t[e]}();if(t&amp;&amp;t.previousSibling){var e,r,n,i,c=t.previousSibling,a=c.getAttribute(&quot;data-cfemail&quot;);if(a){for(e=&quot;&quot;,r=parseInt(a.substr(0,2),16),n=2;a.length-n;n+=2)i=parseInt(a.substr(n,2),16)^r,e+=String.fromCharCode(i);e=document.createTextNode(e),c.parentNode.replaceChild(e,c)}t.parentNode.removeChild(t);}}catch(u){}}()/* ]]&gt; */&lt;/script&gt;\nFormat settings, CABAC : Yes\nFormat settings, ReFrames : 4 frames\nFormat settings, GOP : M=1, N=43\nCodec ID : V_MPEG4/ISO/AVC\nDuration : 1h 30mn\nBit rate : 12.5 Mbps\nWidth : 1 920 pixels\nHeight : 1 080 pixels\nDisplay aspect ratio : 16:9\nFrame rate : 23.976 fps\nColor space : YUV\nChroma subsampling : 4:2:0\nBit depth : 8 bits\nScan type : Progressive\nBits/(Pixel*Frame) : 0.250\nStream size : 7.84 GiB (87%)\nWriting library : x264 core 112 r1867 22bfd31\nLanguage : English\n\nAudio\nID : 2\nFormat : DTS\nFormat/Info : Digital Theater Systems\nCodec ID : A_DTS\nDuration : 1h 30mn\nBit rate mode : Constant\nBit rate : 1 510 Kbps\nChannel(s) : 6 channels\nChannel positions : Front: L C R, Side: L R, LFE\nSampling rate : 48.0 KHz\nBit depth : 24 bits\nCompression mode : Lossy\nStream size : 974 MiB (11%)\nLanguage : English","torrent":{"xt":"urn:btih:b711e7727c216f0c0d8c2940e62ffe1c6ab9d3de","amp;dn":"Saw+3D+%28Stereoscopic+Side-by-Side+MKV%29","amp;tr":["udp%3A%2F%2Ftracker.openbittorrent.com%3A80","udp%3A%2F%2Fopen.demonii.com%3A1337","udp%3A%2F%2Ftracker.coppersurfer.tk%3A6969","udp%3A%2F%2Fexodus.desync.com%3A6969"],"infoHash":"b711e7727c216f0c0d8c2940e62ffe1c6ab9d3de","infoHashBuffer":{"type":"Buffer","data":[183,17,231,114,124,33,111,12,13,140,41,64,230,47,254,28,106,185,211,222]},"announce":[],"urlList":[]}}